<?xml version="1.0" encoding="UTF-8"?>
<svg xmlns="http://www.w3.org/2000/svg" version="1.1" viewBox="0 0 1200 745">
  <defs>
    <style>
      .cls-1 {
        fill: #282828;
      }

      .cls-2 {
        fill: #b9b9ba;
      }

      .cls-3 {
        fill: #d33257;
      }
    </style>
  </defs>
  <!-- Generator: Adobe Illustrator 28.7.1, SVG Export Plug-In . SVG Version: 1.2.0 Build 142)  -->
  <g>
    <g id="Layer_1">
      <g>
        <g>
          <polygon class="cls-2" points="188.1 243.3 63.2 634.4 137 605.8 260.9 436.7 394.2 565.3 527.6 477.2 632.4 634.4 663.4 634.4 556.2 270 591.1 388.6 548.2 358.1 505.3 368.3 453.8 467.6 363.3 243.1 299 208 265.6 281.9 241.8 203.3 188.1 243.3"/>
          <polygon class="cls-3" points="265.6 281.9 299 208 363.3 243.1 265.6 .8 188.1 243.3 241.8 203.3 265.6 281.9"/>
          <polygon class="cls-3" points="591.1 388.6 556.2 270 505.3 368.3 548.2 358.1 591.1 388.6"/>
          <path class="cls-1" d="M513.7,40.7c38,0,73.7,7.2,107.1,21.7,32.7,13.9,62.4,34.1,87.4,59.3,24.9,25.2,44.9,54.8,58.9,87.4,14.4,33.2,21.7,68.8,21.7,106.8s-7.2,73.7-21.7,107.1c-13.9,32.7-33.9,62.5-58.9,87.8-25,25.2-54.7,45.3-87.4,59.3-33.4,14.4-69.2,21.6-107.1,21.7h-159.5V40.7h159.5ZM513.7,430.5c15.8,0,31.4-2.9,46-8.7,59.1-24.1,87.5-91.5,63.4-150.6-5.9-14.5-14.7-27.6-25.8-38.6-10.9-10.5-23.6-18.9-37.6-24.7-14.6-6.1-30.2-9.2-46-9.1v231.7Z"/>
          <path class="cls-1" d="M808.3,561.4h328.5v60h-328.5v-60Z"/>
          <path class="cls-3" d="M975,42.8c20.4-.8,40.8.1,61,2.6,21,2.7,41.6,7.6,61.5,14.7-.6,4.8-1,9.6-1.1,14.5v14.2c0,6.3-.2,16-.6,28.9s-1.3,32.5-2.9,58.7c-13.9-5.5-28.2-10.2-42.8-13.9-14.6-3.9-29.5-7-44.5-9.2-7.4-.8-14.9-.6-22.2.6-6.9,1-13.3,3.8-18.8,8-4.2,4.2-4.9,8.7-2,13.3,2.7,4.4,6.3,8.2,10.7,11l65.9,21.4c13.5,4.1,26.4,10.1,38.1,17.9,11.3,7.5,21.4,16.5,30.1,26.9,8.4,10.1,15.1,21.5,19.9,33.8,4.9,12.5,7.3,25.9,7.2,39.3.4,20.4-2.8,38.8-9.5,55.2-6.5,15.9-16,30.5-28,42.8-12.4,12.4-27,22.5-43.1,29.5-17.3,7.7-35.8,12.6-54.6,14.7-2.7.4-6.7.7-12.1.9s-11.2.3-17.3.3c-11.2.4-22.4.2-33.5-.6-9.9-.6-19.8-2-29.5-4-10.4-2.3-21.1-5.2-32.1-8.7s-25.1-8.5-42.5-15l27.7-124.5c5.8,1.9,11.6,4,17.3,6.1,5.8,2.1,11.6,4.3,17.3,6.6l27.2,9.8c8.9,3.5,17.6,6.7,26.3,9.8,9,3.1,18.5,4.7,28,4.6,5.5-.2,10.8-1.7,15.6-4.3,4.2-2.5,6.7-7,7.5-13.6,0-4.4-1.4-8.8-4-12.4-2.7-3.7-6.2-6.8-10.1-9.2-4.1-2.5-8.5-4.7-13-6.4-4.6-1.7-9.1-3.2-13.3-4.3-17.7-4-34.5-11.2-49.7-21.1-14.6-9.4-27.7-20.9-39-34.1-10.8-12.6-19.5-26.7-26-41.9-6.2-14.2-9.4-29.6-9.5-45.1,0-12.1,1.7-24.2,5.2-35.8,3.5-11.6,9.1-22.5,16.4-32.1,7.9-10.2,17.5-19,28.3-26,11.3-7.5,24.9-13.2,40.7-17,16.2-4.4,33-6.7,49.8-6.9Z"/>
        </g>
        <g>
          <path class="cls-1" d="M66,670.1c8.3-1.3,17.2-2.1,24.1-2.1,20.9,0,34,8.9,34,37.9s-13,37.4-33.8,37.4-14.6-.7-23.1-1.5c-.7,0-1.2-.6-1.2-1.2,0-11.6-.2-22.3-.2-34.6-.1-12.4.2-23.5.2-35.9ZM90.5,722.4h2.1c3.4,0,5.7-1.6,5.7-16.4s-2.4-16.3-5.7-16.3h-2.1c0,5.1-.2,10.4-.2,16.4-.1,5.9,0,11.1.2,16.3Z"/>
          <path class="cls-1" d="M137,668.9c3.9-.2,6.7-.3,10.8-.3s8.5,0,12.7.3c.7,0,1.2.6,1.2,1.2.2,11.6.5,23.5.5,35.9s-.2,24.7-.5,37.1c-3.9.2-6.7.3-10.8.3s-8.5,0-12.7-.3c-.7,0-1.2-.6-1.2-1.2-.2-11.6-.5-23.5-.5-35.9s.2-24.7.5-37.1Z"/>
          <path class="cls-1" d="M208.7,668c6.9,0,14.3.8,22.2,2.1l-2.6,19.6h-22c-3.3,0-5.7,1.6-5.7,16.3s2.8,16.4,6.3,16.4h2.5c0-5-.2-12.4-.5-18.8,3.4-.2,6.6-.2,9.8-.2s6.9,0,10.8.2c.7,0,1.2.6,1.2,1.2.3,5.7.5,11.2.5,17.3s-.2,14-.5,18.9c-8.5,1.5-13.2,2.4-22.2,2.4-20.8,0-33.8-6.5-33.8-37.4,0-29.1,13-38,34-38Z"/>
          <path class="cls-1" d="M245.7,668.9c3.9-.2,6.7-.3,10.8-.3s8.5,0,12.7.3c.7,0,1.2.6,1.2,1.2.2,11.6.5,23.5.5,35.9s-.2,24.7-.5,37.1c-3.9.2-6.7.3-10.8.3s-8.5,0-12.7-.3c-.7,0-1.2-.6-1.2-1.2-.2-11.6-.5-23.5-.5-35.9,0-12.4.2-24.7.5-37.1Z"/>
          <path class="cls-1" d="M282,668.9c3.9-.2,24.5-.3,28.6-.3s21.4,0,25.6.3c.7,0,1.2.6,1.2,1.2.1,3.5.1,7,.1,10.5s0,6.1-.1,9.3c-2,0-8.6.2-15,.2.1,5,.1,10.1.1,15.9,0,12.4-.2,24.7-.5,37.1-3.9.2-6.7.3-10.8.3s-8.5,0-12.7-.3c-.7,0-1.2-.6-1.2-1.2-.2-11.6-.5-23.5-.5-35.9s0-10.9.1-16c-5.6,0-11.5-.3-13.7-.3s-1.2-.6-1.2-1.2c-.1-3.6-.1-6.9-.1-10.2s.1-6.1.1-9.4Z"/>
          <path class="cls-1" d="M342,738.3c3.7-22.6,8.9-46.6,13.5-69.4,5.5-.3,11.2-.3,17-.3s11.8,0,17.7.3c.7,0,1.3.6,1.5,1.2,4.7,23.7,10.5,49,14.1,73-3.9.2-6.6.3-10.8.3s-7.9,0-12.1-.3c-.7,0-1.3-.6-1.5-1.2-.8-4.1-1.5-8.2-2.2-12.4h-11.5c-.7,4.6-1.5,9.1-2.4,13.6-4,.2-6.1.3-10.2.3s-8.5,0-12.7-.3c-.6,0-1-.4-1-1s.4-2.6.6-3.8ZM376.7,713.4c-1.3-9.2-2.5-18.6-3.8-27.8-1.1,9.2-2,18.5-3.1,27.8h6.9Z"/>
          <path class="cls-1" d="M416.7,668.9c3.9-.2,6.7-.3,10.8-.3s8.5,0,12.7.3c.7,0,1.2.6,1.2,1.2.2,11.6.5,23.5.5,35.9s0,10.8-.1,16.1h.5c4.2,0,14.7,0,18.9.3.7,0,1.2.6,1.2,1.2.1,3.8.1,7.2.1,10.7s0,5.9-.1,9.1c-3.9.2-14.1.3-18.2.3s-22.1-.4-26.3-.5c-.7,0-1.2-.6-1.2-1.2-.2-11.6-.5-23.5-.5-35.9s.2-24.8.5-37.2Z"/>
          <path class="cls-1" d="M517.5,720c8.7,2.7,16.3,4.3,21.9,4.3s6.6-2.4,6.6-4.4-3.6-3.5-8.3-4.8c-9.3-2.6-23.1-6.6-23.1-25.6s12.4-21.5,29.3-21.5,15.6,1.1,23.9,2.7l-2.8,20.6c-5.8-2.6-14.6-5-22.3-5s-6.2,1.2-6.2,3.5,3.8,3.3,8.9,4.8c10.2,3.1,25.5,7.6,25.5,24.9s-13.6,24.3-30.3,24.3-17.5-.5-26.1-1.4l3-22.4Z"/>
          <path class="cls-1" d="M580.9,668.9c3.9-.2,6.7-.3,10.8-.3s8.5,0,12.7.3c.7,0,1.2.6,1.2,1.2.2,11.6.5,27.7.5,40.1s1.6,12.6,5,12.6,4.7-1.6,4.7-12.7.2-28.9.5-41.3c3.9-.2,6.7-.3,10.8-.3s8.5,0,12.7.3c.7,0,1.2.6,1.2,1.2.2,11.6.5,24,.5,36.3,0,26.8-10.1,37-27.6,37.9-22.3,0-33.5-6.8-33.5-37.9,0-12.2.2-25,.5-37.4Z"/>
          <path class="cls-1" d="M654.5,668.9c3.9-.2,6.1-.3,10.2-.3s7,0,10.7.3c.7,0,1.1.6,1.4,1.2l15.5,31.7,15.5-31.7c.4-.5.9-1.2,1.5-1.2,2.3-.2,5.3-.3,8.7-.3s8,0,11.5.3c.7,0,1.2.6,1.2,1.2.2,11.6.5,23.5.5,35.9s-.2,24.7-.5,37.1c-3.6.2-5.5.3-9.6.3s-7.3,0-11.5-.3c-.7,0-1.2-.6-1.2-1.2-.2-11-.7-22.1-.7-33.7l-14.1,28.8-1.4.2-1.2-.2-13.4-27.4.4,33.6c-3.9.2-6.1.3-10.2.3s-7.9,0-12.1-.3c-.7,0-1.2-.6-1.2-1.2-.2-11.6-.5-23.5-.5-35.9,0-12.5.2-24.8.5-37.2Z"/>
          <path class="cls-1" d="M746.6,668.9c3.9-.2,6.1-.3,10.2-.3s7,0,10.7.3c.7,0,1.1.6,1.4,1.2l15.5,31.7,15.5-31.7c.4-.5.9-1.2,1.5-1.2,2.3-.2,5.3-.3,8.7-.3s8,0,11.5.3c.7,0,1.2.6,1.2,1.2.2,11.6.5,23.5.5,35.9s-.2,24.7-.5,37.1c-3.6.2-5.5.3-9.6.3s-7.3,0-11.5-.3c-.7,0-1.2-.6-1.2-1.2-.2-11-.7-22.1-.7-33.7l-14.1,28.8-1.4.2-1.2-.2-13.4-27.4.4,33.6c-3.9.2-6.1.3-10.2.3s-7.9,0-12.1-.3c-.7,0-1.2-.6-1.2-1.2-.2-11.6-.5-23.5-.5-35.9,0-12.5.2-24.8.5-37.2Z"/>
          <path class="cls-1" d="M838.6,668.9c3.9-.2,6.7-.3,10.8-.3s8.5,0,12.7.3c.7,0,1.2.6,1.2,1.2.2,11.6.5,23.5.5,35.9s-.2,24.7-.5,37.1c-3.9.2-6.7.3-10.8.3s-8.5,0-12.7-.3c-.7,0-1.2-.6-1.2-1.2-.2-11.6-.5-23.5-.5-35.9s.2-24.7.5-37.1Z"/>
          <path class="cls-1" d="M875,668.9c3.9-.2,24.5-.3,28.6-.3s21.4,0,25.6.3c.7,0,1.2.6,1.2,1.2,0,3.5,0,7,0,10.5s0,6.1,0,9.3c-2,0-8.6.2-15,.2,0,5,0,10.1,0,15.9,0,12.4-.2,24.7-.5,37.1-3.9.2-6.7.3-10.8.3s-8.5,0-12.7-.3c-.7,0-1.2-.6-1.2-1.2-.2-11.6-.5-23.5-.5-35.9s0-10.9,0-16c-5.6,0-11.5-.3-13.7-.3s-1.2-.6-1.2-1.2c0-3.6,0-6.9,0-10.2,0-3,0-6.1.1-9.4Z"/>
          <path class="cls-1" d="M982.7,669.3c0-.7.4-1.2,1.1-1.2,1.5,0,5.1,0,8.7,0s7.3,0,8.7,0c.7,0,1.2.6,1.2,1.2,0,4.2,0,8,0,11.9-.7,5.6-4.5,18.7-5.3,20.9-1.7,0-3.4,0-5.2,0s-4.8,0-6.9,0c-.4-2.3-2-14.7-2.5-20.4,0-4,.1-8.2.1-12.4Z"/>
          <path class="cls-1" d="M1036.9,695.5c4.4-2,7.6-3.5,7.6-5.7s-3.1-3.5-7.1-3.5c-7.5,0-13.8,3.2-17.4,5l-2.8-20.6c5.8-1.4,12-2.7,18.9-2.7,17,0,30.1,1.4,30.1,21.5s-10,19.5-17.5,23.4c-4.6,2.4-8.3,4.2-8.3,7.1v2.1h1.3c4.2,0,18.4,0,22.6.3.7,0,1.2.6,1.2,1.2,0,3.7,0,7.2,0,10.7s0,6,0,9.1c-3.9.2-17.8.3-22,.3s-22.1-.4-26.3-.5c-.7,0-1.2-.6-1.2-1.2-.3-7.5-.5-11.8-.5-19.2.1-17.3,12.8-23.3,21.4-27.3Z"/>
          <path class="cls-1" d="M1075.7,719.4c4.2-13.5,14-42.2,18.1-50.7,3.2,0,10.6-.2,16.7-.2s12,.2,18.9.4c.7,0,1.2.6,1.2,1.2.2,11.6.5,23.5.5,35.9s-.2,24.7-.5,37.1c-3.3.2-6.6.2-9.9.2s-7.7,0-11.6-.2c-.7,0-1.2-.6-1.2-1.2,0-3.5,0-6.9,0-10.4h-9.2c-4.2,0-17.4,0-21.6-.3-.7,0-1.2-.6-1.2-1.2,0-1.5,0-3.2,0-4.8,0-2,0-4,0-5.8ZM1107.9,712.3v-6.3c0-4.5.2-12.7.5-21.2-3.5,10.7-6.8,19.8-10,27.3,2.5,0,5.9,0,9.5.2Z"/>
        </g>
      </g>
    </g>
  </g>
</svg>